<?xml version="1.0" standalone="no"?>
<!DOCTYPE svg PUBLIC "-//W3C//DTD SVG 20010904//EN"
 "http://www.w3.org/TR/2001/REC-SVG-20010904/DTD/svg10.dtd">
<svg version="1.0" xmlns="http://www.w3.org/2000/svg"
 width="96.000000pt" height="96.000000pt" viewBox="0 0 96.000000 96.000000"
 preserveAspectRatio="xMidYMid meet">
<metadata>
Created by potrace 1.15, written by Peter Selinger 2001-2017
</metadata>
<g transform="translate(0.000000,96.000000) scale(0.100000,-0.100000)"
fill="#000000" stroke="none">
<path d="M166 586 c-47 -52 -86 -99 -86 -106 0 -16 169 -200 184 -200 15 0 56
42 56 56 0 5 -27 36 -60 69 -33 33 -60 66 -60 75 0 9 27 42 60 75 33 33 60 64
60 70 0 14 -43 55 -57 55 -6 0 -49 -42 -97 -94z"/>
<path d="M682 657 c-12 -13 -22 -27 -22 -31 0 -5 27 -37 60 -73 33 -35 60 -68
60 -73 0 -5 -27 -38 -60 -73 -33 -36 -60 -69 -60 -74 0 -13 43 -53 57 -53 14
0 183 185 183 200 0 16 -169 200 -184 200 -7 0 -22 -10 -34 -23z"/>
</g>
</svg>
